<?xml version="1.0" encoding="UTF-8"?>
<svg id="Layer_2" data-name="Layer 2" xmlns="http://www.w3.org/2000/svg" viewBox="0 0 754.49 110.28">
  <defs>
    <style>
      .cls-1 {
        fill: #f4f4f4;
      }
    </style>
  </defs>
  <g id="Layer_2-2" data-name="Layer 2">
    <g>
      <path class="cls-1" d="M416.49,92.4c-2.41-1.14-4.29-2.67-5.64-4.61s-2.12-4.09-2.31-6.46h3.34c.38,2.6,1.6,4.92,3.66,6.96,2.06,2.04,5.19,3.05,9.41,3.05,2.46,0,4.6-.45,6.42-1.35,1.82-.9,3.23-2.13,4.22-3.69.99-1.56,1.49-3.29,1.49-5.18,0-2.41-.58-4.33-1.74-5.75-1.16-1.42-2.6-2.48-4.33-3.19-1.73-.71-4.06-1.47-6.99-2.27-3.22-.85-5.81-1.7-7.77-2.56-1.96-.85-3.62-2.16-4.97-3.94-1.35-1.77-2.02-4.2-2.02-7.27,0-2.37.63-4.53,1.88-6.5,1.25-1.96,3.04-3.51,5.36-4.65,2.32-1.14,4.99-1.7,8.02-1.7,4.4,0,7.95,1.09,10.65,3.26,2.7,2.18,4.31,4.85,4.83,8.02h-3.41c-.28-1.28-.91-2.58-1.88-3.91-.97-1.32-2.34-2.42-4.12-3.3-1.77-.87-3.89-1.31-6.35-1.31-3.31,0-6.1.91-8.38,2.73s-3.41,4.25-3.41,7.28c0,2.41.59,4.34,1.77,5.79,1.18,1.44,2.64,2.53,4.37,3.26,1.73.74,4.06,1.48,6.99,2.24,3.26.9,5.86,1.76,7.77,2.59,1.92.83,3.55,2.13,4.9,3.9,1.35,1.78,2.02,4.18,2.02,7.21,0,2.22-.59,4.33-1.77,6.32-1.18,1.99-2.92,3.61-5.22,4.86s-5.07,1.88-8.34,1.88-6.03-.57-8.45-1.7Z"/>
      <path class="cls-1" d="M454.96,91.76c-2.89-1.61-5.15-3.92-6.78-6.92-1.63-3-2.45-6.52-2.45-10.54s.83-7.46,2.48-10.47c1.66-3,3.94-5.3,6.85-6.88,2.91-1.59,6.16-2.38,9.76-2.38s6.84.79,9.72,2.38c2.89,1.59,5.15,3.87,6.78,6.85,1.63,2.98,2.45,6.48,2.45,10.5s-.83,7.54-2.48,10.54c-1.66,3-3.94,5.31-6.85,6.92-2.91,1.61-6.16,2.41-9.76,2.41s-6.84-.81-9.72-2.41ZM472.53,89.45c2.44-1.25,4.39-3.16,5.85-5.71,1.47-2.55,2.2-5.7,2.2-9.44s-.73-6.81-2.2-9.37c-1.47-2.56-3.41-4.46-5.82-5.71-2.41-1.25-5.02-1.88-7.81-1.88s-5.38.63-7.77,1.88c-2.39,1.25-4.32,3.16-5.79,5.71-1.47,2.55-2.2,5.68-2.2,9.37s.72,6.89,2.16,9.44c1.44,2.56,3.36,4.46,5.75,5.71,2.39,1.26,4.98,1.88,7.77,1.88s5.41-.63,7.84-1.88Z"/>
      <path class="cls-1" d="M494.56,41.08v52.53h-3.19v-52.53h3.19Z"/>
      <path class="cls-1" d="M536.73,55.06v38.54h-3.19v-8.38c-1.09,2.94-2.9,5.17-5.43,6.71-2.53,1.54-5.43,2.31-8.7,2.31-4.59,0-8.34-1.41-11.25-4.23-2.91-2.81-4.37-6.99-4.37-12.53v-22.43h3.12v22.22c0,4.59,1.16,8.1,3.48,10.54,2.32,2.44,5.47,3.66,9.44,3.66s7.49-1.32,9.97-3.98c2.48-2.65,3.73-6.58,3.73-11.78v-20.66h3.19Z"/>
      <path class="cls-1" d="M546.63,63.79c1.58-2.98,3.79-5.26,6.6-6.85s6.05-2.38,9.69-2.38c4.83,0,8.79,1.21,11.89,3.62,3.1,2.41,5.03,5.65,5.78,9.72h-3.34c-.62-3.31-2.21-5.91-4.79-7.81-2.58-1.89-5.76-2.84-9.55-2.84-2.84,0-5.42.63-7.74,1.88-2.32,1.26-4.18,3.17-5.57,5.75-1.4,2.58-2.09,5.71-2.09,9.4s.7,6.89,2.09,9.44c1.39,2.56,3.25,4.47,5.57,5.75,2.32,1.28,4.9,1.92,7.74,1.92,3.78,0,6.97-.95,9.55-2.84s4.18-4.49,4.79-7.81h3.34c-.76,4.02-2.7,7.27-5.82,9.73-3.12,2.46-7.07,3.69-11.85,3.69-3.64,0-6.87-.81-9.69-2.41s-5.02-3.92-6.6-6.92c-1.59-3-2.38-6.52-2.38-10.54s.79-7.52,2.38-10.5Z"/>
      <path class="cls-1" d="M587.9,45.73c-.52-.5-.78-1.17-.78-2.02,0-.8.26-1.47.78-1.99s1.16-.78,1.92-.78,1.4.26,1.92.78c.52.52.78,1.18.78,1.99,0,.85-.26,1.53-.78,2.02-.52.5-1.16.75-1.92.75s-1.4-.25-1.92-.75ZM591.38,55.06v38.54h-3.19v-38.54h3.19Z"/>
      <path class="cls-1" d="M608.2,91.76c-2.89-1.61-5.15-3.92-6.78-6.92-1.63-3-2.45-6.52-2.45-10.54s.83-7.46,2.48-10.47c1.66-3,3.94-5.3,6.85-6.88,2.91-1.59,6.16-2.38,9.76-2.38s6.84.79,9.72,2.38c2.89,1.59,5.15,3.87,6.78,6.85,1.63,2.98,2.45,6.48,2.45,10.5s-.83,7.54-2.48,10.54c-1.66,3-3.94,5.31-6.85,6.92s-6.16,2.41-9.76,2.41-6.84-.81-9.72-2.41ZM625.77,89.45c2.44-1.25,4.39-3.16,5.85-5.71,1.47-2.55,2.2-5.7,2.2-9.44s-.73-6.81-2.2-9.37c-1.47-2.56-3.41-4.46-5.82-5.71-2.41-1.25-5.02-1.88-7.81-1.88s-5.38.63-7.77,1.88c-2.39,1.25-4.32,3.16-5.79,5.71-1.47,2.55-2.2,5.68-2.2,9.37s.72,6.89,2.16,9.44c1.44,2.56,3.36,4.46,5.75,5.71,2.39,1.26,4.98,1.88,7.77,1.88s5.41-.63,7.84-1.88Z"/>
      <path class="cls-1" d="M673.22,58.5c2.89,2.82,4.33,6.99,4.33,12.53v22.57h-3.12v-22.36c0-4.59-1.16-8.1-3.48-10.54-2.32-2.44-5.47-3.66-9.44-3.66s-7.49,1.33-9.97,3.98c-2.48,2.65-3.73,6.58-3.73,11.78v20.8h-3.19v-38.54h3.19v8.16c1.09-2.89,2.9-5.1,5.43-6.64,2.53-1.54,5.45-2.31,8.77-2.31,4.59,0,8.33,1.41,11.21,4.22Z"/>
      <path class="cls-1" d="M721.27,75.58h-33.29c.09,3.45.85,6.36,2.27,8.73,1.42,2.37,3.29,4.14,5.61,5.32,2.32,1.18,4.85,1.78,7.6,1.78,3.78,0,6.96-.94,9.51-2.8,2.56-1.87,4.16-4.41,4.83-7.63h3.34c-.76,3.93-2.7,7.11-5.82,9.55-3.12,2.44-7.07,3.66-11.85,3.66-3.6,0-6.81-.81-9.65-2.41s-5.06-3.92-6.67-6.92c-1.61-3-2.41-6.52-2.41-10.54s.79-7.52,2.38-10.5c1.58-2.98,3.8-5.26,6.64-6.85s6.08-2.38,9.72-2.38,6.9.79,9.62,2.38c2.72,1.59,4.79,3.69,6.21,6.32s2.13,5.45,2.13,8.48c0,1.7-.05,2.98-.14,3.83ZM716.41,64.29c-1.35-2.36-3.18-4.13-5.5-5.29-2.32-1.16-4.83-1.74-7.52-1.74s-5.19.58-7.49,1.74c-2.3,1.16-4.16,2.92-5.61,5.29-1.44,2.37-2.21,5.25-2.31,8.66h30.24c.14-3.41-.46-6.29-1.81-8.66Z"/>
      <path class="cls-1" d="M731.25,91.33c-2.72-1.89-4.25-4.59-4.58-8.09h3.27c.24,2.51,1.38,4.49,3.44,5.96,2.06,1.47,4.86,2.2,8.41,2.2,2.93,0,5.26-.75,6.99-2.24s2.59-3.32,2.59-5.5c0-1.51-.46-2.76-1.39-3.73-.92-.97-2.07-1.71-3.44-2.24-1.37-.52-3.24-1.09-5.61-1.7-2.84-.75-5.13-1.5-6.89-2.23-1.75-.73-3.24-1.83-4.47-3.3-1.23-1.47-1.85-3.43-1.85-5.89,0-1.8.54-3.47,1.63-5,1.09-1.54,2.6-2.76,4.54-3.66,1.94-.9,4.14-1.35,6.6-1.35,4.02,0,7.28,1.01,9.76,3.02,2.48,2.01,3.82,4.79,4.01,8.34h-3.19c-.14-2.56-1.14-4.64-2.98-6.25-1.84-1.61-4.4-2.41-7.66-2.41-2.75,0-5.02.71-6.81,2.13-1.8,1.42-2.7,3.15-2.7,5.18,0,1.8.51,3.25,1.53,4.36,1.02,1.11,2.27,1.96,3.76,2.56s3.47,1.22,5.93,1.88c2.7.71,4.86,1.41,6.5,2.1,1.63.69,3.02,1.68,4.15,2.98s1.7,3.04,1.7,5.22c0,1.99-.55,3.79-1.63,5.39-1.09,1.61-2.6,2.86-4.54,3.76-1.94.9-4.12,1.35-6.53,1.35-4.31,0-7.82-.95-10.54-2.84Z"/>
    </g>
    <g>
      <path class="cls-1" d="M159.52,16.03h27.02c4.71,0,8.84.51,12.39,1.52,3.54,1.01,6.51,2.42,8.88,4.23s4.16,3.96,5.35,6.47,1.78,5.24,1.78,8.19c0,2.42-.46,4.69-1.39,6.8s-2.24,4.02-3.93,5.71c-1.7,1.7-3.72,3.17-6.08,4.43-2.36,1.26-4.94,2.21-7.76,2.87l28.47,37.98h-15.26l-27.15-36.79h-9.18v36.79h-13.15V16.03ZM172.66,53.55h7.53c2.95,0,5.68-.39,8.19-1.16s4.68-1.88,6.51-3.34c1.83-1.45,3.26-3.21,4.29-5.28,1.03-2.07,1.55-4.38,1.55-6.94,0-2.33-.41-4.47-1.22-6.41-.82-1.94-1.95-3.61-3.4-5.02s-3.19-2.51-5.22-3.3c-2.03-.79-4.25-1.19-6.67-1.19h-11.56v32.63Z"/>
      <path class="cls-1" d="M234.1,16.03h13.41l30.45,60.05h.59l29.86-60.05h13.21v78.21h-13.21V30.17h-.46l-32.04,64.08h-2.71l-32.43-63.61h-.92v63.61h-5.75V16.03Z"/>
      <path class="cls-1" d="M403.53,16.03v5.02h-28.34v73.19h-13.15V21.05h-28.34v-5.02h69.82Z"/>
    </g>
    <g>
      <path class="cls-1" d="M91.16,48.37q-.42,0-.42.32v52.79q0,8.8,7.79,8.79h29.08s0-.99,0-.99c0-30.09.41-61.32-36.45-60.91Z"/>
      <path class="cls-1" d="M36.49,48.37C-.37,47.96.04,79.19.04,109.28v1h29.08q7.79-.01,7.79-8.8v-52.79q0-.33-.42-.32Z"/>
      <path class="cls-1" d="M127.61,0h-32.09c-4.78,0-4.78.27-4.78,5.47v40.49h7.33c29.53,0,29.53-22.98,29.53-38.07V0Z"/>
      <path class="cls-1" d="M29.53,45.95h7.33V5.47c0-5.19,0-5.47-4.78-5.47H0v2.24c0,2.94,0,3.09,0,5.65,0,15.09,0,38.07,29.53,38.07Z"/>
      <rect class="cls-1" x="43.59" y="0" width="40.43" height="110.28" rx="8.82" ry="8.82"/>
    </g>
  </g>
</svg>